<?xml version="1.0" encoding="UTF-8" standalone="no"?>
<svg
   xmlns:dc="http://purl.org/dc/elements/1.1/"
   xmlns:cc="http://creativecommons.org/ns#"
   xmlns:rdf="http://www.w3.org/1999/02/22-rdf-syntax-ns#"
   xmlns:svg="http://www.w3.org/2000/svg"
   xmlns="http://www.w3.org/2000/svg"
   xmlns:sodipodi="http://sodipodi.sourceforge.net/DTD/sodipodi-0.dtd"
   xmlns:inkscape="http://www.inkscape.org/namespaces/inkscape"
   version="1.1"
   x="0px"
   y="0px"
   viewBox="0 0 128 128"
   enable-background="new 0 0 128 128"
   xml:space="preserve"
   id="svg44"
   sodipodi:docname="noun_sun_1057071.svg"
   width="128"
   height="128"
   inkscape:version="0.92.3 (2405546, 2018-03-11)"><metadata
     id="metadata50"><rdf:RDF><cc:Work
         rdf:about=""><dc:format>image/svg+xml</dc:format><dc:type
           rdf:resource="http://purl.org/dc/dcmitype/StillImage" /></cc:Work></rdf:RDF></metadata><defs
     id="defs48" /><sodipodi:namedview
     pagecolor="#ffffff"
     bordercolor="#666666"
     borderopacity="1"
     objecttolerance="10"
     gridtolerance="10"
     guidetolerance="10"
     inkscape:pageopacity="0"
     inkscape:pageshadow="2"
     inkscape:window-width="1272"
     inkscape:window-height="820"
     id="namedview46"
     showgrid="false"
     inkscape:zoom="1.475"
     inkscape:cx="-7.1864407"
     inkscape:cy="48"
     inkscape:window-x="374"
     inkscape:window-y="265"
     inkscape:window-maximized="0"
     inkscape:current-layer="svg44" /><g
     id="g38"><g
       id="g4"><path
         d="M 64,98 C 45.252,98 30,82.748 30,64 30,45.252 45.252,30 64,30 82.748,30 98,45.252 98,64 98,82.748 82.748,98 64,98 Z M 64,34 C 47.458,34 34,47.458 34,64 34,80.542 47.458,94 64,94 80.542,94 94,80.542 94,64 94,47.458 80.542,34 64,34 Z"
         id="path2"
         inkscape:connector-curvature="0" /></g><g
       id="g8"><path
         d="m 64,22 c -1.104,0 -2,-0.896 -2,-2 V 2 c 0,-1.104 0.896,-2 2,-2 1.104,0 2,0.896 2,2 v 18 c 0,1.104 -0.896,2 -2,2 z"
         id="path6"
         inkscape:connector-curvature="0" /></g><g
       id="g12"><path
         d="m 64,128 c -1.104,0 -2,-0.896 -2,-2 v -18 c 0,-1.104 0.896,-2 2,-2 1.104,0 2,0.896 2,2 v 18 c 0,1.104 -0.896,2 -2,2 z"
         id="path10"
         inkscape:connector-curvature="0" /></g><g
       id="g16"><path
         d="m 126,66 h -18 c -1.104,0 -2,-0.896 -2,-2 0,-1.104 0.896,-2 2,-2 h 18 c 1.104,0 2,0.896 2,2 0,1.104 -0.896,2 -2,2 z"
         id="path14"
         inkscape:connector-curvature="0" /></g><g
       id="g20"><path
         d="M 20,66 H 2 C 0.896,66 0,65.104 0,64 0,62.896 0.896,62 2,62 h 18 c 1.104,0 2,0.896 2,2 0,1.104 -0.896,2 -2,2 z"
         id="path18"
         inkscape:connector-curvature="0" /></g><g
       id="g24"><path
         d="m 95.113,34.888 c -0.512,0 -1.023,-0.195 -1.414,-0.586 -0.781,-0.781 -0.781,-2.047 0,-2.828 l 12.728,-12.729 c 0.781,-0.781 2.048,-0.781 2.828,0 0.781,0.781 0.781,2.047 0,2.828 L 96.527,34.302 c -0.39,0.39 -0.902,0.586 -1.414,0.586 z"
         id="path22"
         inkscape:connector-curvature="0" /></g><g
       id="g28"><path
         d="m 20.159,109.841 c -0.512,0 -1.023,-0.194 -1.414,-0.586 -0.781,-0.78 -0.781,-2.047 0,-2.828 L 31.473,93.698 c 0.78,-0.781 2.047,-0.781 2.828,0 0.781,0.78 0.781,2.047 0,2.827 l -12.728,12.729 c -0.39,0.392 -0.902,0.587 -1.414,0.587 z"
         id="path26"
         inkscape:connector-curvature="0" /></g><g
       id="g32"><path
         d="m 107.841,109.841 c -0.512,0 -1.022,-0.194 -1.414,-0.586 L 93.699,96.525 c -0.781,-0.78 -0.781,-2.047 0,-2.827 0.781,-0.781 2.047,-0.781 2.828,0 l 12.728,12.729 c 0.781,0.781 0.781,2.048 0,2.828 -0.391,0.391 -0.901,0.586 -1.414,0.586 z"
         id="path30"
         inkscape:connector-curvature="0" /></g><g
       id="g36"><path
         d="m 32.887,34.888 c -0.512,0 -1.023,-0.195 -1.414,-0.586 L 18.745,21.573 c -0.781,-0.781 -0.781,-2.047 0,-2.828 0.78,-0.781 2.047,-0.781 2.828,0 l 12.728,12.729 c 0.781,0.781 0.781,2.047 0,2.828 -0.39,0.39 -0.902,0.586 -1.414,0.586 z"
         id="path34"
         inkscape:connector-curvature="0" /></g></g></svg>