<?xml version="1.0" encoding="UTF-8" standalone="no"?>
<svg
   xmlns:dc="http://purl.org/dc/elements/1.1/"
   xmlns:cc="http://creativecommons.org/ns#"
   xmlns:rdf="http://www.w3.org/1999/02/22-rdf-syntax-ns#"
   xmlns:svg="http://www.w3.org/2000/svg"
   xmlns="http://www.w3.org/2000/svg"
   xmlns:sodipodi="http://sodipodi.sourceforge.net/DTD/sodipodi-0.dtd"
   xmlns:inkscape="http://www.inkscape.org/namespaces/inkscape"
   version="1.1"
   x="0px"
   y="0px"
   viewBox="0 0 128.00023 128.00058"
   enable-background="new 0 0 128 128"
   xml:space="preserve"
   id="svg12"
   sodipodi:docname="noun_Moon_1057052.svg"
   width="128.00023"
   height="128.00058"
   inkscape:version="0.92.3 (2405546, 2018-03-11)"><metadata
     id="metadata18"><rdf:RDF><cc:Work
         rdf:about=""><dc:format>image/svg+xml</dc:format><dc:type
           rdf:resource="http://purl.org/dc/dcmitype/StillImage" /></cc:Work></rdf:RDF></metadata><defs
     id="defs16" /><sodipodi:namedview
     pagecolor="#ffffff"
     bordercolor="#666666"
     borderopacity="1"
     objecttolerance="10"
     gridtolerance="10"
     guidetolerance="10"
     inkscape:pageopacity="0"
     inkscape:pageshadow="2"
     inkscape:window-width="838"
     inkscape:window-height="611"
     id="namedview14"
     showgrid="false"
     inkscape:zoom="1.475"
     inkscape:cx="-7.1864407"
     inkscape:cy="48.001"
     inkscape:window-x="0"
     inkscape:window-y="0"
     inkscape:window-maximized="0"
     inkscape:current-layer="svg12" /><g
     id="g6"
     transform="translate(0,-4.1670272e-4)"><g
       id="g4"><path
         d="m 67.183,128.001 c -17.945,0 -34.816,-6.989 -47.506,-19.68 C 6.988,95.634 0,78.764 0,60.819 0,42.875 6.988,26.004 19.677,13.316 25.087,7.904 31.327,3.49 38.224,0.195 c 0.766,-0.364 1.677,-0.208 2.276,0.39 0.6,0.6 0.756,1.512 0.391,2.276 -11.516,24.114 -6.557,53.011 12.34,71.908 11.928,11.928 27.79,18.497 44.661,18.497 9.393,0 18.814,-2.129 27.246,-6.155 0.767,-0.366 1.678,-0.208 2.276,0.391 0.6,0.599 0.756,1.511 0.391,2.275 -3.293,6.896 -7.706,13.136 -13.117,18.545 -12.69,12.69 -29.561,19.679 -47.505,19.679 z M 35.029,6.425 C 30.471,9.119 26.274,12.374 22.506,16.143 10.572,28.077 4,43.943 4,60.819 c 0,16.876 6.572,32.742 18.505,44.674 11.935,11.935 27.801,18.508 44.678,18.508 16.876,0 32.742,-6.573 44.677,-18.508 3.771,-3.771 7.026,-7.968 9.72,-12.528 -7.536,2.824 -15.622,4.301 -23.688,4.301 -17.939,0 -34.805,-6.985 -47.489,-19.669 C 31.673,58.868 25.82,30.901 35.029,6.425 Z"
         id="path2"
         inkscape:connector-curvature="0"
         style="fill:#000000" /></g></g></svg>