<?xml version="1.0" encoding="UTF-8" standalone="no"?>
<svg
   xmlns:dc="http://purl.org/dc/elements/1.1/"
   xmlns:cc="http://creativecommons.org/ns#"
   xmlns:rdf="http://www.w3.org/1999/02/22-rdf-syntax-ns#"
   xmlns:svg="http://www.w3.org/2000/svg"
   xmlns="http://www.w3.org/2000/svg"
   xmlns:sodipodi="http://sodipodi.sourceforge.net/DTD/sodipodi-0.dtd"
   xmlns:inkscape="http://www.inkscape.org/namespaces/inkscape"
   version="1.1"
   x="0px"
   y="0px"
   viewBox="0 0 128.00101 77.627998"
   enable-background="new 0 0 128 128"
   xml:space="preserve"
   id="svg10"
   sodipodi:docname="noun_Cloud_1057048.svg"
   width="128.00101"
   height="77.627998"
   inkscape:version="0.92.3 (2405546, 2018-03-11)"><metadata
     id="metadata16"><rdf:RDF><cc:Work
         rdf:about=""><dc:format>image/svg+xml</dc:format><dc:type
           rdf:resource="http://purl.org/dc/dcmitype/StillImage" /></cc:Work></rdf:RDF></metadata><defs
     id="defs14" /><sodipodi:namedview
     pagecolor="#ffffff"
     bordercolor="#666666"
     borderopacity="1"
     objecttolerance="10"
     gridtolerance="10"
     guidetolerance="10"
     inkscape:pageopacity="0"
     inkscape:pageshadow="2"
     inkscape:window-width="640"
     inkscape:window-height="480"
     id="namedview12"
     showgrid="false"
     inkscape:zoom="1.475"
     inkscape:cx="-7.1864407"
     inkscape:cy="22.814"
     inkscape:window-x="0"
     inkscape:window-y="0"
     inkscape:window-maximized="0"
     inkscape:current-layer="svg10" /><g
     id="g4"
     transform="translate(0,-25.186)"><path
       d="m 104.191,48.651 c -2.67,-13.483 -14.68,-23.465 -28.566,-23.465 -11.427,0 -21.824,6.782 -26.519,17.084 -2.551,-1.041 -5.299,-1.584 -8.061,-1.584 -11.132,0 -20.304,8.555 -21.288,19.436 C 8.724,60.953 0,70.195 0,81.438 c 0,11.787 9.589,21.376 21.375,21.376 h 79.438 c 14.991,0 27.188,-12.196 27.188,-27.188 C 128,61.884 117.664,50.331 104.191,48.651 Z m -3.379,50.162 H 21.375 C 11.794,98.813 4,91.019 4,81.438 c 0,-9.58 7.792,-17.374 17.367,-17.374 0,0 0.002,0 0.003,0 0.1,0.008 0.2,0.014 0.301,0.014 1.104,0 2,-0.896 2,-2 0,-0.023 0,-0.048 -10e-4,-0.072 0.03,-9.555 7.813,-17.319 17.375,-17.319 2.841,0 5.666,0.708 8.167,2.049 0.511,0.274 1.114,0.311 1.655,0.106 0.542,-0.206 0.967,-0.636 1.167,-1.179 3.625,-9.855 13.106,-16.476 23.591,-16.476 12.438,0 23.131,9.282 24.871,21.59 0.133,0.938 0.904,1.654 1.85,1.716 C 114.488,53.29 124,63.451 124,75.625 c 0,12.786 -10.402,23.188 -23.188,23.188 z"
       id="path2"
       inkscape:connector-curvature="0" /></g></svg>