<?xml version="1.0" encoding="UTF-8" standalone="no"?>
<svg
   xmlns:dc="http://purl.org/dc/elements/1.1/"
   xmlns:cc="http://creativecommons.org/ns#"
   xmlns:rdf="http://www.w3.org/1999/02/22-rdf-syntax-ns#"
   xmlns:svg="http://www.w3.org/2000/svg"
   xmlns="http://www.w3.org/2000/svg"
   xmlns:sodipodi="http://sodipodi.sourceforge.net/DTD/sodipodi-0.dtd"
   xmlns:inkscape="http://www.inkscape.org/namespaces/inkscape"
   version="1.1"
   x="0px"
   y="0px"
   viewBox="0 0 128 113.626"
   enable-background="new 0 0 128 128"
   xml:space="preserve"
   id="svg54"
   sodipodi:docname="noun_foggy_1057047.svg"
   width="128"
   height="113.626"
   inkscape:version="0.92.3 (2405546, 2018-03-11)"><metadata
     id="metadata60"><rdf:RDF><cc:Work
         rdf:about=""><dc:format>image/svg+xml</dc:format><dc:type
           rdf:resource="http://purl.org/dc/dcmitype/StillImage" /></cc:Work></rdf:RDF></metadata><defs
     id="defs58" /><sodipodi:namedview
     pagecolor="#ffffff"
     bordercolor="#666666"
     borderopacity="1"
     objecttolerance="10"
     gridtolerance="10"
     guidetolerance="10"
     inkscape:pageopacity="0"
     inkscape:pageshadow="2"
     inkscape:window-width="1218"
     inkscape:window-height="676"
     id="namedview56"
     showgrid="false"
     inkscape:zoom="1.475"
     inkscape:cx="-7.1864407"
     inkscape:cy="40.813"
     inkscape:window-x="266"
     inkscape:window-y="496"
     inkscape:window-maximized="0"
     inkscape:current-layer="svg54" /><g
     id="g4"
     transform="translate(0,-7.187)"><path
       d="M 100.812,84.813 H 21.375 C 9.589,84.813 0,75.225 0,63.438 0,52.196 8.724,42.953 19.757,42.123 20.74,31.242 29.912,22.687 41.045,22.687 c 2.762,0 5.51,0.543 8.061,1.584 4.695,-10.302 15.092,-17.084 26.519,-17.084 13.887,0 25.896,9.981 28.566,23.465 C 117.664,32.331 128,43.884 128,57.625 128,72.616 115.804,84.813 100.812,84.813 Z M 21.367,46.063 C 11.792,46.063 4,53.857 4,63.438 c 0,9.581 7.794,17.376 17.375,17.376 h 79.438 c 12.785,0 23.188,-10.402 23.188,-23.189 0,-12.174 -9.512,-22.335 -21.654,-23.132 -0.945,-0.062 -1.717,-0.778 -1.85,-1.716 -1.74,-12.308 -12.433,-21.59 -24.871,-21.59 -10.485,0 -19.966,6.621 -23.591,16.476 -0.2,0.543 -0.625,0.973 -1.167,1.179 -0.541,0.205 -1.144,0.167 -1.655,-0.106 -2.502,-1.34 -5.326,-2.049 -8.167,-2.049 -9.562,0 -17.345,7.764 -17.375,17.319 0.001,0.024 0.001,0.048 0.001,0.072 0,1.104 -0.896,2 -2,2 -0.102,0 -0.201,-0.006 -0.301,-0.014 -10e-4,-10e-4 -0.003,-10e-4 -0.004,-10e-4 z"
       id="path2"
       inkscape:connector-curvature="0" /></g><g
     id="g8"
     transform="translate(0,-7.187)"><path
       d="M 85.383,96.813 H 69.5 c -1.104,0 -2,-0.896 -2,-2 0,-1.104 0.896,-2 2,-2 h 15.883 c 1.104,0 2,0.896 2,2 0,1.104 -0.896,2 -2,2 z"
       id="path6"
       inkscape:connector-curvature="0" /></g><g
     id="g12"
     transform="translate(0,-7.187)"><path
       d="M 112.266,96.813 H 96.383 c -1.104,0 -2,-0.896 -2,-2 0,-1.104 0.896,-2 2,-2 h 15.883 c 1.104,0 2,0.896 2,2 0,1.104 -0.896,2 -2,2 z"
       id="path10"
       inkscape:connector-curvature="0" /></g><g
     id="g16"
     transform="translate(0,-7.187)"><path
       d="M 58.5,96.813 H 42.617 c -1.104,0 -2,-0.896 -2,-2 0,-1.104 0.896,-2 2,-2 H 58.5 c 1.104,0 2,0.896 2,2 0,1.104 -0.896,2 -2,2 z"
       id="path14"
       inkscape:connector-curvature="0" /></g><g
     id="g20"
     transform="translate(0,-7.187)"><path
       d="M 31.617,96.813 H 15.734 c -1.104,0 -2,-0.896 -2,-2 0,-1.104 0.896,-2 2,-2 h 15.883 c 1.104,0 2,0.896 2,2 0,1.104 -0.895,2 -2,2 z"
       id="path18"
       inkscape:connector-curvature="0" /></g><g
     id="g24"
     transform="translate(0,-7.187)"><path
       d="M 83.383,120.813 H 69.5 c -1.104,0 -2,-0.896 -2,-2 0,-1.104 0.896,-2 2,-2 h 13.883 c 1.104,0 2,0.896 2,2 0,1.104 -0.896,2 -2,2 z"
       id="path22"
       inkscape:connector-curvature="0" /></g><g
     id="g28"
     transform="translate(0,-7.187)"><path
       d="M 108.266,120.813 H 94.383 c -1.104,0 -2,-0.896 -2,-2 0,-1.104 0.896,-2 2,-2 h 13.883 c 1.104,0 2,0.896 2,2 0,1.104 -0.896,2 -2,2 z"
       id="path26"
       inkscape:connector-curvature="0" /></g><g
     id="g32"
     transform="translate(0,-7.187)"><path
       d="M 58.5,120.813 H 44.617 c -1.104,0 -2,-0.896 -2,-2 0,-1.104 0.896,-2 2,-2 H 58.5 c 1.104,0 2,0.896 2,2 0,1.104 -0.896,2 -2,2 z"
       id="path30"
       inkscape:connector-curvature="0" /></g><g
     id="g36"
     transform="translate(0,-7.187)"><path
       d="M 33.617,120.813 H 19.734 c -1.104,0 -2,-0.896 -2,-2 0,-1.104 0.896,-2 2,-2 h 13.883 c 1.104,0 2,0.896 2,2 0,1.104 -0.895,2 -2,2 z"
       id="path34"
       inkscape:connector-curvature="0" /></g><g
     id="g40"
     transform="translate(0,-7.187)"><path
       d="M 98.824,108.813 H 82.941 c -1.104,0 -2,-0.896 -2,-2 0,-1.104 0.896,-2 2,-2 h 15.883 c 1.104,0 2,0.896 2,2 0,1.104 -0.895,2 -2,2 z"
       id="path38"
       inkscape:connector-curvature="0" /></g><g
     id="g44"
     transform="translate(0,-7.187)"><path
       d="M 71.941,108.813 H 56.059 c -1.104,0 -2,-0.896 -2,-2 0,-1.104 0.896,-2 2,-2 h 15.883 c 1.104,0 2,0.896 2,2 0,1.104 -0.897,2 -2.001,2 z"
       id="path42"
       inkscape:connector-curvature="0" /></g><g
     id="g48"
     transform="translate(0,-7.187)"><path
       d="M 45.059,108.813 H 29.176 c -1.104,0 -2,-0.896 -2,-2 0,-1.104 0.896,-2 2,-2 h 15.883 c 1.104,0 2,0.896 2,2 0,1.104 -0.896,2 -2,2 z"
       id="path46"
       inkscape:connector-curvature="0" /></g></svg>