<?xml version="1.0" encoding="UTF-8" standalone="no"?>
<svg
   xmlns:dc="http://purl.org/dc/elements/1.1/"
   xmlns:cc="http://creativecommons.org/ns#"
   xmlns:rdf="http://www.w3.org/1999/02/22-rdf-syntax-ns#"
   xmlns:svg="http://www.w3.org/2000/svg"
   xmlns="http://www.w3.org/2000/svg"
   xmlns:sodipodi="http://sodipodi.sourceforge.net/DTD/sodipodi-0.dtd"
   xmlns:inkscape="http://www.inkscape.org/namespaces/inkscape"
   version="1.1"
   x="0px"
   y="0px"
   viewBox="0 0 128 128"
   enable-background="new 0 0 128 128"
   xml:space="preserve"
   id="svg44"
   sodipodi:docname="noun_Hail_1057045.svg"
   inkscape:version="0.92.3 (2405546, 2018-03-11)"
   width="128"
   height="128"><metadata
     id="metadata50"><rdf:RDF><cc:Work
         rdf:about=""><dc:format>image/svg+xml</dc:format><dc:type
           rdf:resource="http://purl.org/dc/dcmitype/StillImage" /></cc:Work></rdf:RDF></metadata><defs
     id="defs48" /><sodipodi:namedview
     pagecolor="#ffffff"
     bordercolor="#666666"
     borderopacity="1"
     objecttolerance="10"
     gridtolerance="10"
     guidetolerance="10"
     inkscape:pageopacity="0"
     inkscape:pageshadow="2"
     inkscape:window-width="640"
     inkscape:window-height="480"
     id="namedview46"
     showgrid="false"
     inkscape:zoom="1.475"
     inkscape:cx="-7.1864407"
     inkscape:cy="48"
     inkscape:window-x="0"
     inkscape:window-y="0"
     inkscape:window-maximized="0"
     inkscape:current-layer="svg44" /><g
     id="g38"><g
       id="g4"><path
         d="M 100.812,77.627 H 21.375 C 9.589,77.627 0,68.037 0,56.25 0,45.008 8.724,35.766 19.757,34.936 20.741,24.055 29.913,15.5 41.045,15.5 c 2.762,0 5.51,0.543 8.061,1.584 C 53.801,6.782 64.198,0 75.625,0 89.512,0 101.521,9.981 104.191,23.465 117.664,25.144 128,36.698 128,50.438 128,65.43 115.805,77.627 100.812,77.627 Z M 21.367,38.877 C 11.792,38.877 4,46.67 4,56.25 c 0,9.582 7.794,17.376 17.375,17.376 h 79.438 c 12.785,0 23.188,-10.402 23.188,-23.189 0,-12.174 -9.512,-22.335 -21.653,-23.132 -0.945,-0.062 -1.718,-0.778 -1.851,-1.716 C 98.756,13.282 88.062,4 75.625,4 65.141,4 55.659,10.621 52.034,20.476 c -0.2,0.543 -0.625,0.973 -1.167,1.179 -0.541,0.204 -1.144,0.167 -1.655,-0.106 C 46.71,20.209 43.886,19.5 41.045,19.5 31.483,19.5 23.7,27.264 23.67,36.819 c 10e-4,0.024 10e-4,0.048 10e-4,0.072 0,1.104 -0.896,2 -2,2 -0.102,0 -0.201,-0.006 -0.301,-0.014 0,0 -0.002,0 -0.003,0 z"
         id="path2"
         inkscape:connector-curvature="0" /></g><g
       id="g8"><path
         d="m 29.396,97.627 c -4.411,0 -8,-3.589 -8,-8 0,-4.411 3.589,-8 8,-8 4.411,0 8,3.589 8,8 0,4.411 -3.589,8 -8,8 z m 0,-12 c -2.206,0 -4,1.794 -4,4 0,2.206 1.794,4 4,4 2.206,0 4,-1.794 4,-4 0,-2.206 -1.794,-4 -4,-4 z"
         id="path6"
         inkscape:connector-curvature="0" /></g><g
       id="g12"><path
         d="m 46.322,112.255 c -4.411,0 -8,-3.589 -8,-8 0,-4.411 3.589,-8 8,-8 4.411,0 8,3.589 8,8 0,4.411 -3.589,8 -8,8 z m 0,-12 c -2.206,0 -4,1.794 -4,4 0,2.206 1.794,4 4,4 2.206,0 4,-1.794 4,-4 0,-2.206 -1.794,-4 -4,-4 z"
         id="path10"
         inkscape:connector-curvature="0" /></g><g
       id="g16"><path
         d="m 64,97.627 c -4.411,0 -8,-3.589 -8,-8 0,-4.411 3.588,-8 8,-8 4.412,0 8,3.589 8,8 0,4.411 -3.589,8 -8,8 z m 0,-12 c -2.206,0 -4,1.794 -4,4 0,2.206 1.794,4 4,4 2.206,0 4,-1.794 4,-4 0,-2.206 -1.795,-4 -4,-4 z"
         id="path14"
         inkscape:connector-curvature="0" /></g><g
       id="g20"><path
         d="m 81.678,112.255 c -4.41,0 -8,-3.589 -8,-8 0,-4.411 3.59,-8 8,-8 4.411,0 8,3.589 8,8 0,4.411 -3.589,8 -8,8 z m 0,-12 c -2.205,0 -4,1.794 -4,4 0,2.206 1.795,4 4,4 2.206,0 4,-1.794 4,-4 0,-2.206 -1.794,-4 -4,-4 z"
         id="path18"
         inkscape:connector-curvature="0" /></g><g
       id="g24"><path
         d="m 98.604,97.627 c -4.41,0 -8,-3.589 -8,-8 0,-4.411 3.59,-8 8,-8 4.412,0 8,3.589 8,8 0,4.411 -3.588,8 -8,8 z m 0,-12 c -2.205,0 -4,1.794 -4,4 0,2.206 1.795,4 4,4 2.207,0 4,-1.794 4,-4 0,-2.206 -1.793,-4 -4,-4 z"
         id="path22"
         inkscape:connector-curvature="0" /></g><g
       id="g28"><path
         d="m 29.396,128 c -4.411,0 -8,-3.589 -8,-8 0,-4.411 3.589,-8 8,-8 4.411,0 8,3.589 8,8 0,4.411 -3.589,8 -8,8 z m 0,-12 c -2.206,0 -4,1.794 -4,4 0,2.206 1.794,4 4,4 2.206,0 4,-1.794 4,-4 0,-2.206 -1.794,-4 -4,-4 z"
         id="path26"
         inkscape:connector-curvature="0" /></g><g
       id="g32"><path
         d="m 64,128 c -4.411,0 -8,-3.589 -8,-8 0,-4.411 3.588,-8 8,-8 4.412,0 8,3.589 8,8 0,4.411 -3.589,8 -8,8 z m 0,-12 c -2.206,0 -4,1.794 -4,4 0,2.206 1.794,4 4,4 2.206,0 4,-1.794 4,-4 0,-2.206 -1.795,-4 -4,-4 z"
         id="path30"
         inkscape:connector-curvature="0" /></g><g
       id="g36"><path
         d="m 98.604,128 c -4.41,0 -8,-3.589 -8,-8 0,-4.411 3.59,-8 8,-8 4.412,0 8,3.589 8,8 0,4.411 -3.588,8 -8,8 z m 0,-12 c -2.205,0 -4,1.794 -4,4 0,2.206 1.795,4 4,4 2.207,0 4,-1.794 4,-4 0,-2.206 -1.793,-4 -4,-4 z"
         id="path34"
         inkscape:connector-curvature="0" /></g></g></svg>