<?xml version="1.0" encoding="UTF-8" standalone="no"?>
<svg
   xmlns:dc="http://purl.org/dc/elements/1.1/"
   xmlns:cc="http://creativecommons.org/ns#"
   xmlns:rdf="http://www.w3.org/1999/02/22-rdf-syntax-ns#"
   xmlns:svg="http://www.w3.org/2000/svg"
   xmlns="http://www.w3.org/2000/svg"
   xmlns:sodipodi="http://sodipodi.sourceforge.net/DTD/sodipodi-0.dtd"
   xmlns:inkscape="http://www.inkscape.org/namespaces/inkscape"
   version="1.1"
   x="0px"
   y="0px"
   viewBox="0 0 128.00122 104.14192"
   enable-background="new 0 0 128 128"
   xml:space="preserve"
   id="svg22"
   sodipodi:docname="noun_Cloudy Day_1057059.svg"
   width="128.00122"
   height="104.14192"
   inkscape:version="0.92.3 (2405546, 2018-03-11)"><metadata
     id="metadata28"><rdf:RDF><cc:Work
         rdf:about=""><dc:format>image/svg+xml</dc:format><dc:type
           rdf:resource="http://purl.org/dc/dcmitype/StillImage" /></cc:Work></rdf:RDF></metadata><defs
     id="defs26" /><sodipodi:namedview
     pagecolor="#ffffff"
     bordercolor="#666666"
     borderopacity="1"
     objecttolerance="10"
     gridtolerance="10"
     guidetolerance="10"
     inkscape:pageopacity="0"
     inkscape:pageshadow="2"
     inkscape:window-width="640"
     inkscape:window-height="480"
     id="namedview24"
     showgrid="false"
     inkscape:zoom="1.475"
     inkscape:cx="-7.1862202"
     inkscape:cy="36.071"
     inkscape:window-x="0"
     inkscape:window-y="0"
     inkscape:window-maximized="0"
     inkscape:current-layer="svg22" /><g
     id="g16"
     transform="translate(2.2046203e-4,-11.929076)"><path
       d="M 34.065,74.504 C 26.908,70.014 22.924,61.393 24.78,52.662 26.801,43.154 35.311,36.253 45.015,36.253 c 1.445,0 2.901,0.154 4.328,0.458 5.411,1.15 10.05,4.338 13.063,8.978 1.674,2.577 2.709,5.434 3.125,8.389 0.446,0.694 2.555,1.12 3.158,0.694 0.604,-0.426 0.723,-2.26 0.459,-3.253 C 68.51,48.707 67.378,46 65.761,43.51 62.166,37.975 56.63,34.171 50.174,32.798 c -1.7,-0.361 -3.436,-0.544 -5.16,-0.544 -11.581,0 -21.736,8.233 -24.148,19.577 -2.291,10.778 2.856,21.435 11.957,26.618 0.753,0.365 2.118,-0.573 2.242,-1.171 0.148,-0.705 -0.253,-2.262 -1,-2.774 z"
       id="path2"
       inkscape:connector-curvature="0" /><path
       d="m 51.116,28.38 c 0.14,0.03 0.28,0.044 0.417,0.044 0.924,0 1.754,-0.645 1.955,-1.585 l 2.655,-12.494 c 0.229,-1.08 -0.46,-2.142 -1.541,-2.372 -1.08,-0.229 -2.142,0.46 -2.372,1.541 l -2.655,12.494 c -0.23,1.08 0.46,2.142 1.541,2.372 z"
       id="path4"
       inkscape:connector-curvature="0" /><path
       d="m 14.497,52.476 c 0.924,0 1.754,-0.645 1.954,-1.584 0.23,-1.081 -0.46,-2.143 -1.54,-2.372 L 2.416,45.863 c -1.08,-0.232 -2.143,0.46 -2.372,1.54 -0.23,1.081 0.46,2.143 1.54,2.372 l 12.495,2.656 c 0.14,0.03 0.28,0.045 0.418,0.045 z"
       id="path6"
       inkscape:connector-curvature="0" /><path
       d="m 71.229,41.96 c 0.373,0 0.751,-0.104 1.088,-0.323 L 83.03,34.679 c 0.926,-0.602 1.189,-1.84 0.588,-2.767 -0.603,-0.926 -1.839,-1.19 -2.768,-0.588 l -10.713,6.958 c -0.926,0.602 -1.189,1.84 -0.588,2.767 0.384,0.591 1.025,0.911 1.68,0.911 z"
       id="path8"
       inkscape:connector-curvature="0" /><path
       d="M 20.527,72.883 C 19.925,71.957 18.686,71.695 17.76,72.296 L 7.047,79.255 c -0.926,0.602 -1.189,1.84 -0.588,2.767 0.383,0.59 1.024,0.91 1.679,0.91 0.374,0 0.751,-0.104 1.087,-0.323 L 19.938,75.65 c 0.928,-0.602 1.191,-1.84 0.589,-2.767 z"
       id="path10"
       inkscape:connector-curvature="0" /><path
       d="m 26.354,31.868 c 0.383,0.59 1.024,0.911 1.679,0.911 0.373,0 0.751,-0.104 1.087,-0.323 0.926,-0.602 1.189,-1.84 0.588,-2.767 L 22.751,18.976 c -0.601,-0.925 -1.839,-1.19 -2.767,-0.588 -0.926,0.602 -1.189,1.84 -0.588,2.767 z"
       id="path12"
       inkscape:connector-curvature="0" /><path
       d="M 107.222,68.408 C 104.8,56.638 94.279,47.945 82.125,47.945 c -4.659,0 -9.115,1.295 -12.976,3.572 -1.274,0.751 -2.489,1.601 -3.617,2.559 -2.769,2.352 -5.054,5.293 -6.636,8.677 -2.188,-0.859 -4.533,-1.309 -6.889,-1.309 -8.376,0 -15.481,5.492 -17.942,13.059 -0.406,1.247 -0.699,2.544 -0.836,3.889 -0.137,0.012 -0.269,0.04 -0.404,0.055 C 23.381,79.475 16,87.482 16,97.196 c 0,10.408 8.467,18.875 18.875,18.875 h 69.188 c 13.199,0 23.938,-10.738 23.938,-23.938 C 128,80.099 118.995,69.969 107.222,68.408 Z m -3.16,43.663 H 34.875 C 26.673,112.071 20,105.398 20,97.196 c 0,-8.202 6.673,-14.875 14.846,-14.874 0.095,0.007 0.19,0.013 0.288,0.013 1.091,0 1.976,-0.876 1.996,-1.962 0,-0.014 0.004,-0.025 0.004,-0.038 0,-0.023 0,-0.048 -10e-4,-0.072 0.005,-1.372 0.212,-2.694 0.566,-3.955 1.758,-6.256 7.5,-10.861 14.309,-10.861 2.432,0 4.85,0.606 6.991,1.753 0.511,0.273 1.113,0.313 1.655,0.106 0.541,-0.205 0.966,-0.636 1.166,-1.179 0.874,-2.375 2.154,-4.521 3.726,-6.396 1.229,-1.464 2.631,-2.766 4.186,-3.855 3.563,-2.498 7.869,-3.931 12.394,-3.931 10.705,0 19.907,7.989 21.406,18.583 0.133,0.938 0.904,1.653 1.85,1.716 10.439,0.686 18.618,9.423 18.618,19.89 0,10.993 -8.944,19.937 -19.938,19.937 z"
       id="path14"
       inkscape:connector-curvature="0" /></g></svg>