<?xml version="1.0" encoding="UTF-8" standalone="no"?>
<svg
   xmlns:dc="http://purl.org/dc/elements/1.1/"
   xmlns:cc="http://creativecommons.org/ns#"
   xmlns:rdf="http://www.w3.org/1999/02/22-rdf-syntax-ns#"
   xmlns:svg="http://www.w3.org/2000/svg"
   xmlns="http://www.w3.org/2000/svg"
   xmlns:sodipodi="http://sodipodi.sourceforge.net/DTD/sodipodi-0.dtd"
   xmlns:inkscape="http://www.inkscape.org/namespaces/inkscape"
   version="1.1"
   x="0px"
   y="0px"
   viewBox="0 0 128.00023 106.79172"
   enable-background="new 0 0 128 128"
   xml:space="preserve"
   id="svg12"
   sodipodi:docname="noun_Cloudy Night_1057046.svg"
   inkscape:version="0.92.3 (2405546, 2018-03-11)"
   width="128.00023"
   height="106.79172"><metadata
     id="metadata18"><rdf:RDF><cc:Work
         rdf:about=""><dc:format>image/svg+xml</dc:format><dc:type
           rdf:resource="http://purl.org/dc/dcmitype/StillImage" /></cc:Work></rdf:RDF></metadata><defs
     id="defs16" /><sodipodi:namedview
     pagecolor="#ffffff"
     bordercolor="#666666"
     borderopacity="1"
     objecttolerance="10"
     gridtolerance="10"
     guidetolerance="10"
     inkscape:pageopacity="0"
     inkscape:pageshadow="2"
     inkscape:window-width="640"
     inkscape:window-height="480"
     id="namedview14"
     showgrid="false"
     inkscape:zoom="1.475"
     inkscape:cx="-7.1864407"
     inkscape:cy="37.396"
     inkscape:window-x="0"
     inkscape:window-y="0"
     inkscape:window-maximized="0"
     inkscape:current-layer="svg12" /><g
     id="g6"
     transform="translate(0,-10.604283)"><path
       d="m 127.414,53.248 c -0.598,-0.599 -1.511,-0.756 -2.275,-0.391 -3.943,1.882 -8.348,2.877 -12.74,2.877 -7.887,0 -15.302,-3.071 -20.88,-8.648 -8.835,-8.835 -11.153,-22.346 -5.769,-33.62 0.365,-0.765 0.209,-1.677 -0.391,-2.276 -0.6,-0.599 -1.511,-0.756 -2.276,-0.39 -3.445,1.646 -6.562,3.851 -9.26,6.552 C 67.488,23.686 64,32.108 64,41.067 c 0,2.817 0.346,5.581 1.016,8.244 0.34,0.764 1.748,1.23 2.065,1.245 0.718,0.034 1.299,-0.069 2.133,-1.074 C 68.417,46.785 68,43.958 68,41.067 c 0,-7.89 3.072,-15.308 8.652,-20.887 1.072,-1.074 2.22,-2.058 3.436,-2.949 -3.183,11.492 -0.028,24.053 8.603,32.684 6.334,6.332 14.753,9.819 23.708,9.819 3.028,0 6.062,-0.417 8.981,-1.224 -0.892,1.217 -1.877,2.367 -2.952,3.442 -5.58,5.582 -12.998,8.655 -20.889,8.655 -0.979,0 -1.948,-0.048 -2.909,-0.142 0.067,1.186 0.808,2.606 2.267,3.385 1.065,0.567 4.191,1.03 5.411,0.418 7.149,-1.012 13.752,-4.289 18.948,-9.487 2.699,-2.698 4.902,-5.812 6.549,-9.257 0.365,-0.765 0.209,-1.677 -0.391,-2.276 z"
       id="path2"
       inkscape:connector-curvature="0" /><path
       d="M 102.308,74.269 C 100.028,72.57 97.438,71.271 94.63,70.466 93.522,70.15 92.39,69.888 91.222,69.733 89.008,58.975 80.023,50.811 69.214,49.483 68.197,49.358 67.17,49.271 66.125,49.271 c -0.372,0 -0.74,0.024 -1.109,0.041 C 55.487,49.73 46.92,55.474 42.897,64.079 40.709,63.22 38.364,62.771 36.008,62.771 26.251,62.771 18.199,70.213 17.23,79.718 7.59,80.554 0,88.667 0,98.521 c 0,10.408 8.467,18.875 18.875,18.875 h 69.188 c 13.199,0 23.938,-10.738 23.938,-23.938 C 112,85.646 108.191,78.652 102.308,74.269 Z M 88.062,113.396 H 18.875 C 10.673,113.396 4,106.723 4,98.521 4,90.319 10.673,83.646 18.846,83.647 c 0.095,0.007 0.19,0.013 0.288,0.013 1.104,0 2,-0.896 2,-2 0,-0.023 0,-0.048 -0.001,-0.072 0.032,-8.175 6.693,-14.816 14.875,-14.816 2.432,0 4.85,0.606 6.991,1.753 0.511,0.273 1.115,0.313 1.655,0.106 0.542,-0.205 0.967,-0.636 1.167,-1.179 C 48.94,58.968 57.1,53.27 66.125,53.27 c 0.057,0 0.111,0.007 0.168,0.008 1.572,0.012 3.106,0.21 4.593,0.55 7.493,1.713 13.629,7.356 15.899,14.76 0.324,1.057 0.587,2.143 0.746,3.265 0.133,0.938 0.904,1.653 1.85,1.716 1.543,0.102 3.028,0.398 4.454,0.831 8.217,2.495 14.165,10.138 14.165,19.058 0,10.993 -8.944,19.938 -19.938,19.938 z"
       id="path4"
       inkscape:connector-curvature="0" /></g></svg>