<?xml version="1.0" encoding="UTF-8" standalone="no"?>
<svg
   xmlns:dc="http://purl.org/dc/elements/1.1/"
   xmlns:cc="http://creativecommons.org/ns#"
   xmlns:rdf="http://www.w3.org/1999/02/22-rdf-syntax-ns#"
   xmlns:svg="http://www.w3.org/2000/svg"
   xmlns="http://www.w3.org/2000/svg"
   xmlns:sodipodi="http://sodipodi.sourceforge.net/DTD/sodipodi-0.dtd"
   xmlns:inkscape="http://www.inkscape.org/namespaces/inkscape"
   version="1.1"
   x="0px"
   y="0px"
   viewBox="0 0 128 112.33"
   enable-background="new 0 0 128 128"
   xml:space="preserve"
   id="svg26"
   sodipodi:docname="noun_Light Rain_1057057.svg"
   width="128"
   height="112.33"
   inkscape:version="0.92.3 (2405546, 2018-03-11)"><metadata
     id="metadata32"><rdf:RDF><cc:Work
         rdf:about=""><dc:format>image/svg+xml</dc:format><dc:type
           rdf:resource="http://purl.org/dc/dcmitype/StillImage" /></cc:Work></rdf:RDF></metadata><defs
     id="defs30" /><sodipodi:namedview
     pagecolor="#ffffff"
     bordercolor="#666666"
     borderopacity="1"
     objecttolerance="10"
     gridtolerance="10"
     guidetolerance="10"
     inkscape:pageopacity="0"
     inkscape:pageshadow="2"
     inkscape:window-width="858"
     inkscape:window-height="635"
     id="namedview28"
     showgrid="false"
     inkscape:zoom="1.475"
     inkscape:cx="-7.1864407"
     inkscape:cy="40.165"
     inkscape:window-x="0"
     inkscape:window-y="0"
     inkscape:window-maximized="0"
     inkscape:current-layer="svg26" /><g
     id="g20"
     transform="translate(0,-7.835)"><path
       d="m 50.187,96.045 c -0.296,1.064 0.327,2.168 1.391,2.463 0.179,0.051 0.36,0.074 0.537,0.074 0.876,0 1.68,-0.58 1.926,-1.465 l 3.405,-12.258 h -4.152 z"
       id="path2"
       inkscape:connector-curvature="0" /><path
       d="m 50.175,103.709 c -1.066,-0.299 -2.166,0.332 -2.459,1.396 l -3.452,12.527 c -0.293,1.064 0.332,2.166 1.397,2.459 0.178,0.051 0.356,0.074 0.532,0.074 0.878,0 1.683,-0.584 1.927,-1.471 l 3.452,-12.527 c 0.294,-1.063 -0.332,-2.165 -1.397,-2.458 z"
       id="path4"
       inkscape:connector-curvature="0" /><path
       d="m 86.955,99.672 c -1.062,-0.297 -2.168,0.318 -2.469,1.381 l -2.691,9.516 c -0.299,1.062 0.318,2.168 1.381,2.469 0.182,0.051 0.365,0.076 0.545,0.076 0.873,0 1.676,-0.576 1.924,-1.457 l 2.691,-9.516 c 0.299,-1.063 -0.318,-2.168 -1.381,-2.469 z"
       id="path6"
       inkscape:connector-curvature="0" /><path
       d="m 86.828,92.553 c -0.295,1.064 0.332,2.166 1.396,2.459 0.178,0.051 0.355,0.074 0.531,0.074 0.879,0 1.684,-0.584 1.928,-1.471 l 2.408,-8.756 h -4.148 z"
       id="path8"
       inkscape:connector-curvature="0" /><path
       d="m 33.538,99.672 c -1.06,-0.299 -2.167,0.318 -2.468,1.381 l -2.69,9.516 c -0.301,1.062 0.317,2.168 1.38,2.469 0.182,0.051 0.365,0.076 0.545,0.076 0.873,0 1.674,-0.576 1.923,-1.457 l 2.69,-9.516 c 0.301,-1.063 -0.317,-2.168 -1.38,-2.469 z"
       id="path10"
       inkscape:connector-curvature="0" /><path
       d="m 33.411,92.553 c -0.293,1.064 0.332,2.166 1.397,2.459 0.178,0.051 0.356,0.074 0.532,0.074 0.878,0 1.683,-0.584 1.927,-1.471 l 2.409,-8.756 h -4.149 z"
       id="path12"
       inkscape:connector-curvature="0" /><path
       d="m 68.072,95.924 c -0.295,1.064 0.326,2.166 1.391,2.463 0.18,0.049 0.359,0.074 0.537,0.074 0.877,0 1.68,-0.58 1.926,-1.465 l 3.371,-12.137 h -4.15 z"
       id="path14"
       inkscape:connector-curvature="0" /><path
       d="m 68.051,103.709 c -1.066,-0.299 -2.166,0.332 -2.459,1.396 l -3.453,12.527 c -0.293,1.064 0.332,2.166 1.397,2.459 0.178,0.051 0.356,0.074 0.532,0.074 0.877,0 1.682,-0.584 1.926,-1.471 l 3.453,-12.527 c 0.293,-1.063 -0.332,-2.165 -1.396,-2.458 z"
       id="path16"
       inkscape:connector-curvature="0" /><path
       d="M 100.812,85.461 C 115.802,85.461 128,73.264 128,58.273 128,44.533 117.664,32.979 104.191,31.3 101.521,17.817 89.511,7.835 75.625,7.835 64.197,7.835 53.8,14.617 49.105,24.919 46.554,23.878 43.806,23.335 41.044,23.335 29.912,23.335 20.74,31.89 19.756,42.771 8.724,43.601 0,52.844 0,64.085 0,75.873 9.589,85.46 21.375,85.46 h 79.437 z m 0,-4 H 21.375 C 11.794,81.461 4,73.666 4,64.085 c 0,-9.58 7.792,-17.374 17.367,-17.374 0,0 0.002,0 0.003,0 0.1,0.008 0.2,0.014 0.301,0.014 1.104,0 2,-0.896 2,-2 0,-0.023 0,-0.048 -10e-4,-0.072 0.03,-9.555 7.813,-17.319 17.375,-17.319 2.841,0 5.666,0.708 8.167,2.049 0.511,0.273 1.114,0.312 1.655,0.106 0.542,-0.206 0.967,-0.636 1.167,-1.179 3.625,-9.855 13.105,-16.476 23.592,-16.476 12.438,0 23.131,9.282 24.871,21.59 0.133,0.938 0.904,1.654 1.85,1.716 12.141,0.798 21.653,10.959 21.653,23.132 0,12.787 -10.402,23.189 -23.188,23.189 z"
       id="path18"
       inkscape:connector-curvature="0" /></g></svg>