<?xml version="1.0" encoding="UTF-8" standalone="no"?>
<svg
   xmlns:dc="http://purl.org/dc/elements/1.1/"
   xmlns:cc="http://creativecommons.org/ns#"
   xmlns:rdf="http://www.w3.org/1999/02/22-rdf-syntax-ns#"
   xmlns:svg="http://www.w3.org/2000/svg"
   xmlns="http://www.w3.org/2000/svg"
   xmlns:sodipodi="http://sodipodi.sourceforge.net/DTD/sodipodi-0.dtd"
   xmlns:inkscape="http://www.inkscape.org/namespaces/inkscape"
   version="1.1"
   x="0px"
   y="0px"
   viewBox="0 0 128 123.617"
   enable-background="new 0 0 128 128"
   xml:space="preserve"
   id="svg30"
   sodipodi:docname="noun_rain and sleet_1057056.svg"
   width="128"
   height="123.617"
   inkscape:version="0.92.3 (2405546, 2018-03-11)"><metadata
     id="metadata36"><rdf:RDF><cc:Work
         rdf:about=""><dc:format>image/svg+xml</dc:format><dc:type
           rdf:resource="http://purl.org/dc/dcmitype/StillImage" /></cc:Work></rdf:RDF></metadata><defs
     id="defs34" /><sodipodi:namedview
     pagecolor="#ffffff"
     bordercolor="#666666"
     borderopacity="1"
     objecttolerance="10"
     gridtolerance="10"
     guidetolerance="10"
     inkscape:pageopacity="0"
     inkscape:pageshadow="2"
     inkscape:window-width="782"
     inkscape:window-height="577"
     id="namedview32"
     showgrid="false"
     inkscape:zoom="1.475"
     inkscape:cx="-7.1864407"
     inkscape:cy="45.807"
     inkscape:window-x="0"
     inkscape:window-y="0"
     inkscape:window-maximized="0"
     inkscape:current-layer="svg30" /><g
     id="g24"
     transform="translate(0,-2.19)"><path
       d="m 85.5,113.781 c -1.064,-0.291 -2.166,0.333 -2.459,1.396 l -2.135,7.754 c -0.293,1.065 0.332,2.166 1.396,2.461 0.179,0.049 0.357,0.071 0.533,0.071 0.877,0 1.683,-0.583 1.929,-1.47 l 2.135,-7.754 c 0.292,-1.063 -0.335,-2.164 -1.399,-2.458 z"
       id="path2"
       inkscape:connector-curvature="0" /><path
       d="m 90.955,94.027 c -1.062,-0.297 -2.168,0.317 -2.469,1.381 l -3.035,10.738 c -0.301,1.062 0.316,2.168 1.381,2.469 0.182,0.051 0.365,0.076 0.545,0.076 0.871,0 1.674,-0.576 1.924,-1.457 l 3.035,-10.738 c 0.301,-1.062 -0.316,-2.168 -1.381,-2.469 z"
       id="path4"
       inkscape:connector-curvature="0" /><path
       d="m 90.828,86.909 c -0.293,1.063 0.332,2.166 1.396,2.459 0.178,0.05 0.356,0.073 0.532,0.073 0.877,0 1.683,-0.584 1.927,-1.471 l 2.504,-9.094 h -4.148 z"
       id="path6"
       inkscape:connector-curvature="0" /><path
       d="m 106.68,101.895 c -1.062,-0.289 -2.164,0.338 -2.455,1.402 l -3.211,11.762 c -0.291,1.064 0.338,2.164 1.404,2.455 0.176,0.049 0.354,0.071 0.527,0.071 0.879,0 1.686,-0.585 1.928,-1.476 l 3.211,-11.76 c 0.291,-1.065 -0.338,-2.163 -1.404,-2.454 z"
       id="path8"
       inkscape:connector-curvature="0" /><path
       d="m 107.5,91.295 c -0.297,1.062 0.324,2.167 1.389,2.464 0.18,0.05 0.361,0.074 0.539,0.074 0.875,0 1.678,-0.579 1.926,-1.464 l 5.095,-18.274 c -1.529,1.054 -3.171,1.955 -4.902,2.683 z"
       id="path10"
       inkscape:connector-curvature="0" /><path
       d="m 30.267,98.543 c -1.067,-0.289 -2.166,0.338 -2.456,1.403 l -3.906,14.321 c -0.291,1.065 0.338,2.166 1.403,2.457 0.176,0.047 0.354,0.07 0.527,0.07 0.88,0 1.686,-0.585 1.929,-1.475 l 3.906,-14.322 c 0.29,-1.063 -0.338,-2.163 -1.403,-2.454 z"
       id="path12"
       inkscape:connector-curvature="0" /><path
       d="m 30.58,89.791 c -0.291,1.064 0.338,2.165 1.403,2.456 0.176,0.048 0.354,0.071 0.527,0.071 0.88,0 1.686,-0.586 1.929,-1.476 l 3.263,-11.966 h -4.146 z"
       id="path14"
       inkscape:connector-curvature="0" /><path
       d="m 13.727,93.777 c -1.065,-0.29 -2.166,0.338 -2.456,1.404 l -2.335,8.56 c -0.291,1.065 0.337,2.165 1.403,2.456 0.176,0.048 0.353,0.07 0.527,0.07 0.88,0 1.686,-0.584 1.929,-1.475 l 2.335,-8.561 c 0.29,-1.062 -0.338,-2.163 -1.403,-2.454 z"
       id="path16"
       inkscape:connector-curvature="0" /><path
       d="m 13.882,85.617 c -0.291,1.064 0.337,2.165 1.402,2.456 0.176,0.048 0.354,0.071 0.528,0.071 0.879,0 1.686,-0.586 1.928,-1.476 l 2.151,-7.88 c -1.358,-0.11 -2.678,-0.354 -3.953,-0.706 z"
       id="path18"
       inkscape:connector-curvature="0" /><path
       d="M 104.191,25.655 C 101.521,12.172 89.512,2.19 75.625,2.19 64.198,2.19 53.801,8.972 49.106,19.274 46.555,18.233 43.807,17.69 41.045,17.69 29.913,17.69 20.741,26.245 19.757,37.126 8.725,37.957 0,47.199 0,58.441 c 0,9.813 6.655,18.083 15.682,20.583 1.275,0.354 2.595,0.597 3.953,0.707 0.576,0.047 81.178,0.088 81.178,0.088 3.711,0 7.25,-0.75 10.477,-2.103 1.732,-0.727 3.373,-1.629 4.902,-2.682 C 123.316,70.127 128,61.916 128,52.628 128,38.888 117.664,27.334 104.191,25.655 Z m 11.807,44.476 c -1.014,0.88 -2.1,1.678 -3.254,2.373 -3.488,2.102 -7.57,3.312 -11.932,3.312 0,0 -79.878,-0.024 -80.101,-0.032 C 19.338,75.73 18.007,75.523 16.733,75.169 9.403,73.131 4,66.413 4,58.441 c 0,-9.58 7.792,-17.374 17.367,-17.374 0,0 0.002,0 0.003,0 0.1,0.008 0.2,0.014 0.301,0.014 1.104,0 2,-0.896 2,-2 0,-0.023 0,-0.048 -10e-4,-0.072 0.03,-9.555 7.813,-17.319 17.375,-17.319 2.841,0 5.666,0.708 8.167,2.049 0.511,0.272 1.114,0.311 1.655,0.105 0.542,-0.206 0.967,-0.636 1.167,-1.179 C 55.659,12.812 65.141,6.19 75.625,6.19 c 12.439,0 23.131,9.282 24.871,21.59 0.133,0.938 0.904,1.654 1.85,1.716 12.142,0.797 21.654,10.959 21.654,23.132 0,6.982 -3.105,13.248 -8.002,17.503 z"
       id="path20"
       inkscape:connector-curvature="0" /><path
       d="m 80.549,99.04 c -0.201,-0.806 -1.018,-1.292 -1.818,-1.093 l -5.241,1.306 0.983,-2.407 c 0.314,-0.767 -0.055,-1.643 -0.82,-1.955 -0.77,-0.315 -1.643,0.056 -1.957,0.82 l -1.813,4.439 h -10e-4 l -0.002,0.003 -8.721,2.172 v -0.001 l 2.506,-8.731 v 0 l 10e-4,-0.001 V 93.59 l 4.497,-1.652 c 0.777,-0.285 1.176,-1.147 0.891,-1.926 -0.285,-0.777 -1.146,-1.175 -1.926,-0.891 l -2.435,0.896 1.462,-5.1 c 0.229,-0.797 -0.23,-1.627 -1.027,-1.855 -0.794,-0.229 -1.626,0.23 -1.855,1.027 l -1.464,5.102 v 0 10e-4 -10e-4 l -1.594,-2.054 c -0.507,-0.655 -1.451,-0.772 -2.104,-0.267 -0.654,0.508 -0.773,1.45 -0.266,2.104 l 2.939,3.789 10e-4,-0.001 v 0.001 l 0.001,0.007 -0.003,-0.005 -2.506,8.729 -6.307,-6.532 0.816,-4.728 C 52.927,89.42 52.38,88.642 51.563,88.502 50.748,88.365 49.97,88.909 49.83,89.727 l -0.442,2.56 -10e-4,-0.001 -3.687,-3.819 c -0.575,-0.595 -1.524,-0.611 -2.121,-0.037 -0.597,0.575 -0.613,1.524 -0.038,2.121 l 3.686,3.819 -2.576,0.353 c -0.821,0.111 -1.395,0.867 -1.283,1.688 0.103,0.752 0.746,1.297 1.484,1.297 0.068,0 0.136,-0.005 0.205,-0.015 l 4.753,-0.648 6.307,6.535 -8.812,2.193 0.004,0.004 -0.005,-0.002 -0.002,10e-4 0.002,-0.003 -3.685,-3.068 c -0.637,-0.53 -1.583,-0.444 -2.112,0.191 -0.53,0.638 -0.444,1.582 0.192,2.112 l 1.997,1.663 0.002,10e-4 h -0.002 l -5.151,1.283 c -0.804,0.2 -1.293,1.014 -1.093,1.817 0.17,0.683 0.782,1.138 1.455,1.138 0.12,0 0.242,-0.015 0.363,-0.045 l 5.149,-1.283 -0.981,2.406 c -0.313,0.768 0.055,1.643 0.822,1.956 0.186,0.076 0.377,0.111 0.566,0.111 0.591,0 1.152,-0.353 1.389,-0.934 l 1.811,-4.438 h 10e-4 l 0.002,-0.002 8.812,-2.192 -2.481,8.642 10e-4,-0.001 v 0.001 l -10e-4,0.004 -10e-4,-0.003 -4.5,1.653 c -0.777,0.286 -1.176,1.148 -0.89,1.926 0.286,0.777 1.146,1.176 1.925,0.891 l 2.439,-0.896 0.001,-0.001 -1.489,5.188 c -0.229,0.797 0.232,1.627 1.028,1.855 0.139,0.04 0.278,0.059 0.415,0.059 0.652,0 1.252,-0.428 1.441,-1.086 l 1.49,-5.188 v 0 0.001 l 1.592,2.053 c 0.296,0.382 0.739,0.581 1.187,0.581 0.321,0 0.645,-0.103 0.918,-0.313 0.655,-0.508 0.774,-1.45 0.267,-2.104 l -2.938,-3.788 v -0.002 l -0.002,-0.004 2.48,-8.641 h 10e-4 l 6.244,6.471 -0.816,4.726 c -0.142,0.816 0.408,1.593 1.225,1.733 0.086,0.015 0.172,0.021 0.256,0.021 0.717,0 1.352,-0.516 1.477,-1.246 l 0.441,-2.559 3.752,3.887 c 0.293,0.305 0.687,0.457 1.078,0.457 0.375,0 0.752,-0.14 1.043,-0.421 0.596,-0.575 0.611,-1.523 0.037,-2.12 l -3.75,-3.887 2.574,-0.352 c 0.822,-0.112 1.396,-0.869 1.283,-1.689 -0.111,-0.82 -0.875,-1.393 -1.689,-1.283 l -4.75,0.649 -6.246,-6.47 8.725,-2.174 3.684,3.071 c 0.281,0.233 0.621,0.349 0.961,0.349 0.43,0 0.855,-0.185 1.152,-0.539 0.531,-0.638 0.445,-1.584 -0.191,-2.113 l -1.996,-1.665 -0.002,-0.001 h 0.002 l 5.238,-1.305 c 0.804,-0.199 1.292,-1.013 1.093,-1.816 z m -27.214,19.667 v 0 z"
       id="path22"
       inkscape:connector-curvature="0" /></g></svg>