<?xml version="1.0" encoding="UTF-8" standalone="no"?>
<svg
   xmlns:dc="http://purl.org/dc/elements/1.1/"
   xmlns:cc="http://creativecommons.org/ns#"
   xmlns:rdf="http://www.w3.org/1999/02/22-rdf-syntax-ns#"
   xmlns:svg="http://www.w3.org/2000/svg"
   xmlns="http://www.w3.org/2000/svg"
   xmlns:sodipodi="http://sodipodi.sourceforge.net/DTD/sodipodi-0.dtd"
   xmlns:inkscape="http://www.inkscape.org/namespaces/inkscape"
   version="1.1"
   x="0px"
   y="0px"
   viewBox="0 0 128 128.00101"
   enable-background="new 0 0 128 128"
   xml:space="preserve"
   id="svg16"
   sodipodi:docname="noun_Heavy Snow_1057055.svg"
   inkscape:version="0.92.3 (2405546, 2018-03-11)"
   width="128"
   height="128.00101"><metadata
     id="metadata22"><rdf:RDF><cc:Work
         rdf:about=""><dc:format>image/svg+xml</dc:format><dc:type
           rdf:resource="http://purl.org/dc/dcmitype/StillImage" /></cc:Work></rdf:RDF></metadata><defs
     id="defs20" /><sodipodi:namedview
     pagecolor="#ffffff"
     bordercolor="#666666"
     borderopacity="1"
     objecttolerance="10"
     gridtolerance="10"
     guidetolerance="10"
     inkscape:pageopacity="0"
     inkscape:pageshadow="2"
     inkscape:window-width="640"
     inkscape:window-height="480"
     id="namedview18"
     showgrid="false"
     inkscape:zoom="1.475"
     inkscape:cx="-7.1864407"
     inkscape:cy="48.001"
     inkscape:window-x="0"
     inkscape:window-y="0"
     inkscape:window-maximized="0"
     inkscape:current-layer="svg16" /><g
     id="g10"><path
       d="m 21.375,77.627 h 79.438 C 115.804,77.627 128,65.43 128,50.438 128,36.698 117.664,25.144 104.191,23.465 101.521,9.981 89.512,0 75.625,0 64.197,0 53.8,6.782 49.105,17.084 46.555,16.043 43.806,15.5 41.044,15.5 29.912,15.5 20.74,24.055 19.756,34.936 8.724,35.766 0,45.009 0,56.25 0,68.037 9.589,77.627 21.375,77.627 Z m -0.008,-38.75 c 0,0 0.002,0 0.003,0 0.1,0.008 0.2,0.014 0.301,0.014 1.104,0 2,-0.896 2,-2 0,-0.019 0,-0.039 -10e-4,-0.059 0.024,-9.561 7.809,-17.332 17.375,-17.332 2.841,0 5.666,0.708 8.167,2.048 0.51,0.274 1.114,0.312 1.655,0.107 0.542,-0.206 0.967,-0.636 1.167,-1.179 C 55.658,10.621 65.139,4 75.625,4 c 12.438,0 23.131,9.282 24.871,21.59 0.133,0.938 0.904,1.654 1.85,1.716 C 114.488,28.103 124,38.264 124,50.438 124,63.225 113.598,73.627 100.812,73.627 H 21.375 C 11.794,73.627 4,65.832 4,56.25 4,46.67 11.792,38.877 21.367,38.877 Z"
       id="path2"
       inkscape:connector-curvature="0" /><path
       d="M 83.485,94.249 C 83.072,93.53 82.152,93.285 81.436,93.7 l -4.778,2.759 0.289,-2.661 c 0.09,-0.823 -0.505,-1.563 -1.329,-1.653 -0.816,-0.093 -1.563,0.505 -1.653,1.329 l -0.527,4.845 -7.938,4.583 v -9.26 l 3.931,-2.878 c 0.669,-0.489 0.813,-1.428 0.324,-2.096 -0.488,-0.669 -1.43,-0.814 -2.096,-0.324 L 65.5,89.925 V 84.5 C 65.5,83.672 64.828,83 64,83 c -0.829,0 -1.5,0.672 -1.5,1.5 v 5.425 l -2.161,-1.582 c -0.669,-0.489 -1.607,-0.344 -2.096,0.325 -0.489,0.669 -0.344,1.607 0.325,2.097 l 3.933,2.878 v 9.259 l -8.018,-4.629 -0.528,-4.845 c -0.09,-0.823 -0.833,-1.417 -1.654,-1.329 -0.823,0.09 -1.418,0.83 -1.329,1.653 l 0.29,2.661 -4.697,-2.712 c -0.717,-0.415 -1.634,-0.169 -2.049,0.549 -0.415,0.718 -0.168,1.635 0.549,2.049 l 4.699,2.713 -2.451,1.081 c -0.758,0.334 -1.102,1.219 -0.768,1.978 0.248,0.561 0.797,0.895 1.374,0.895 0.202,0 0.407,-0.041 0.604,-0.128 l 4.46,-1.967 8.017,4.628 -8.018,4.629 -4.46,-1.966 c -0.759,-0.331 -1.643,0.011 -1.978,0.768 -0.334,0.759 0.009,1.644 0.768,1.979 l 2.45,1.079 -4.698,2.713 c -0.717,0.414 -0.963,1.331 -0.549,2.049 0.278,0.481 0.782,0.75 1.3,0.75 0.254,0 0.512,-0.064 0.749,-0.201 l 4.698,-2.712 -0.29,2.662 c -0.089,0.823 0.505,1.563 1.329,1.653 0.055,0.006 0.11,0.009 0.164,0.009 0.755,0 1.406,-0.569 1.489,-1.338 l 0.527,-4.846 8.019,-4.63 v 9.168 l -3.933,2.879 c -0.669,0.489 -0.814,1.428 -0.325,2.096 0.49,0.668 1.428,0.815 2.096,0.324 l 2.161,-1.581 v 5.518 c 0,0.828 0.671,1.5 1.5,1.5 0.828,0 1.5,-0.672 1.5,-1.5 v -5.518 l 2.161,1.581 c 0.267,0.196 0.577,0.29 0.885,0.29 0.462,0 0.918,-0.213 1.211,-0.614 0.489,-0.668 0.345,-1.606 -0.324,-2.096 l -3.933,-2.879 v -9.167 l 7.938,4.583 0.526,4.845 c 0.083,0.769 0.733,1.338 1.489,1.338 0.055,0 0.109,-0.003 0.164,-0.009 0.823,-0.09 1.419,-0.83 1.329,-1.653 l -0.289,-2.661 4.778,2.759 c 0.236,0.137 0.494,0.201 0.749,0.201 0.518,0 1.022,-0.269 1.3,-0.75 0.414,-0.718 0.169,-1.635 -0.549,-2.049 l -4.778,-2.759 2.451,-1.081 c 0.758,-0.334 1.102,-1.22 0.767,-1.978 -0.334,-0.757 -1.218,-1.101 -1.978,-0.767 l -4.459,1.967 -7.94,-4.585 7.94,-4.584 4.459,1.967 c 0.197,0.087 0.402,0.128 0.604,0.128 0.576,0 1.126,-0.334 1.373,-0.895 0.335,-0.758 -0.009,-1.644 -0.767,-1.978 l -2.451,-1.081 4.778,-2.759 c 0.721,-0.413 0.966,-1.33 0.552,-2.048 z"
       id="path4"
       inkscape:connector-curvature="0" /><path
       d="M 34.073,92.749 C 33.659,92.032 32.743,91.786 32.024,92.2 l -3.73,2.153 0.202,-1.86 C 28.585,91.67 27.991,90.93 27.167,90.84 26.34,90.75 25.603,91.346 25.514,92.169 l -0.439,4.044 -6.389,3.688 v -7.457 l 3.282,-2.402 c 0.668,-0.489 0.813,-1.428 0.324,-2.096 -0.49,-0.668 -1.429,-0.815 -2.097,-0.324 l -1.509,1.104 V 84.5 c 0,-0.828 -0.671,-1.5 -1.5,-1.5 -0.829,0 -1.5,0.672 -1.5,1.5 v 4.228 l -1.512,-1.106 c -0.669,-0.489 -1.608,-0.344 -2.096,0.325 -0.489,0.669 -0.344,1.607 0.325,2.097 l 3.283,2.402 v 7.456 L 9.229,96.174 8.788,92.129 C 8.698,91.305 7.959,90.713 7.134,90.8 6.31,90.89 5.716,91.63 5.805,92.453 l 0.203,1.861 -3.66,-2.113 C 1.631,91.786 0.714,92.033 0.3,92.75 c -0.415,0.718 -0.168,1.635 0.549,2.049 l 3.661,2.113 -1.714,0.756 c -0.758,0.335 -1.102,1.22 -0.768,1.979 0.248,0.561 0.797,0.895 1.374,0.895 0.202,0 0.407,-0.041 0.604,-0.127 l 3.725,-1.642 6.456,3.727 -6.457,3.728 -3.724,-1.641 c -0.758,-0.331 -1.644,0.011 -1.978,0.769 -0.334,0.758 0.01,1.644 0.768,1.978 l 1.713,0.755 -3.661,2.111 c -0.717,0.414 -0.963,1.331 -0.549,2.049 0.278,0.481 0.782,0.75 1.3,0.75 0.254,0 0.512,-0.064 0.749,-0.201 l 3.661,-2.113 -0.203,1.862 c -0.089,0.823 0.505,1.563 1.329,1.653 0.055,0.006 0.11,0.009 0.164,0.009 0.755,0 1.406,-0.569 1.489,-1.338 l 0.44,-4.046 6.458,-3.728 v 7.378 l -3.283,2.403 c -0.668,0.489 -0.814,1.428 -0.325,2.096 0.49,0.668 1.428,0.815 2.096,0.324 l 1.512,-1.106 v 4.308 c 0,0.828 0.671,1.5 1.5,1.5 0.829,0 1.5,-0.672 1.5,-1.5 v -4.308 l 1.512,1.106 c 0.267,0.196 0.577,0.29 0.885,0.29 0.462,0 0.917,-0.213 1.211,-0.614 0.489,-0.668 0.344,-1.606 -0.325,-2.096 l -3.283,-2.403 v -7.378 l 6.389,3.688 0.439,4.045 c 0.083,0.769 0.733,1.338 1.489,1.338 0.054,0 0.109,-0.003 0.164,-0.009 0.824,-0.09 1.418,-0.83 1.329,-1.653 l -0.202,-1.862 3.73,2.154 c 0.236,0.137 0.494,0.201 0.749,0.201 0.519,0 1.022,-0.269 1.3,-0.75 0.415,-0.718 0.168,-1.635 -0.549,-2.049 l -3.729,-2.153 1.714,-0.757 c 0.758,-0.334 1.101,-1.22 0.767,-1.978 -0.334,-0.759 -1.221,-1.101 -1.978,-0.767 l -3.722,1.643 -6.391,-3.69 6.391,-3.689 3.722,1.643 c 0.197,0.087 0.402,0.128 0.604,0.128 0.576,0 1.126,-0.333 1.374,-0.895 0.334,-0.758 -0.009,-1.644 -0.767,-1.978 l -1.714,-0.757 3.73,-2.153 c 0.717,-0.413 0.963,-1.33 0.548,-2.048 z"
       id="path6"
       inkscape:connector-curvature="0" /><path
       d="m 127.701,92.749 c -0.414,-0.719 -1.333,-0.963 -2.049,-0.549 l -3.73,2.154 0.202,-1.861 c 0.09,-0.823 -0.505,-1.563 -1.329,-1.653 -0.812,-0.091 -1.563,0.505 -1.653,1.329 l -0.44,4.044 -6.388,3.688 v -7.457 l 3.281,-2.402 c 0.669,-0.489 0.813,-1.428 0.324,-2.096 -0.488,-0.668 -1.429,-0.815 -2.096,-0.324 l -1.51,1.105 V 84.5 c 0,-0.828 -0.672,-1.5 -1.5,-1.5 -0.828,0 -1.5,0.672 -1.5,1.5 v 4.228 l -1.512,-1.106 c -0.67,-0.489 -1.607,-0.344 -2.097,0.325 -0.49,0.669 -0.344,1.607 0.325,2.097 l 3.283,2.402 v 7.457 l -6.457,-3.729 -0.439,-4.045 c -0.089,-0.823 -0.833,-1.416 -1.653,-1.329 -0.823,0.09 -1.419,0.829 -1.329,1.653 l 0.202,1.862 -3.661,-2.114 c -0.716,-0.415 -1.635,-0.17 -2.049,0.549 -0.414,0.718 -0.169,1.635 0.549,2.049 l 3.662,2.114 -1.715,0.756 c -0.758,0.334 -1.102,1.219 -0.767,1.978 0.247,0.561 0.797,0.895 1.373,0.895 0.202,0 0.407,-0.041 0.604,-0.128 l 3.723,-1.642 6.457,3.728 -6.457,3.728 -3.724,-1.641 c -0.756,-0.331 -1.643,0.01 -1.978,0.769 -0.334,0.758 0.01,1.644 0.769,1.978 l 1.712,0.754 -3.661,2.114 c -0.718,0.414 -0.963,1.331 -0.549,2.049 0.277,0.481 0.782,0.75 1.3,0.75 0.255,0 0.513,-0.064 0.749,-0.201 l 3.662,-2.114 -0.202,1.863 c -0.09,0.824 0.506,1.563 1.329,1.653 0.056,0.006 0.109,0.009 0.164,0.009 0.756,0 1.406,-0.569 1.489,-1.338 l 0.439,-4.046 6.457,-3.729 v 7.379 l -3.283,2.403 c -0.669,0.489 -0.814,1.428 -0.324,2.096 0.488,0.668 1.429,0.815 2.096,0.324 l 1.512,-1.106 v 4.308 c 0,0.828 0.672,1.5 1.5,1.5 0.828,0 1.5,-0.672 1.5,-1.5 v -4.308 l 1.512,1.106 c 0.267,0.196 0.577,0.29 0.885,0.29 0.462,0 0.918,-0.213 1.211,-0.614 0.49,-0.668 0.345,-1.606 -0.324,-2.096 l -3.283,-2.403 v -7.378 l 6.389,3.688 0.439,4.045 c 0.083,0.769 0.733,1.338 1.489,1.338 0.055,0 0.109,-0.003 0.164,-0.009 0.823,-0.09 1.419,-0.83 1.329,-1.653 l -0.202,-1.862 3.73,2.154 c 0.236,0.137 0.494,0.201 0.749,0.201 0.518,0 1.022,-0.269 1.3,-0.75 0.414,-0.718 0.169,-1.635 -0.549,-2.049 l -3.729,-2.153 1.714,-0.757 c 0.758,-0.334 1.102,-1.22 0.767,-1.978 -0.334,-0.759 -1.219,-1.101 -1.978,-0.767 l -3.723,1.643 -6.391,-3.69 6.391,-3.689 3.723,1.643 c 0.197,0.087 0.402,0.128 0.604,0.128 0.576,0 1.126,-0.334 1.373,-0.895 0.335,-0.758 -0.009,-1.644 -0.767,-1.978 l -1.715,-0.757 3.73,-2.153 c 0.72,-0.415 0.965,-1.332 0.551,-2.05 z"
       id="path8"
       inkscape:connector-curvature="0" /></g></svg>