<?xml version="1.0" encoding="UTF-8" standalone="no"?>
<svg
   xmlns:dc="http://purl.org/dc/elements/1.1/"
   xmlns:cc="http://creativecommons.org/ns#"
   xmlns:rdf="http://www.w3.org/1999/02/22-rdf-syntax-ns#"
   xmlns:svg="http://www.w3.org/2000/svg"
   xmlns="http://www.w3.org/2000/svg"
   xmlns:sodipodi="http://sodipodi.sourceforge.net/DTD/sodipodi-0.dtd"
   xmlns:inkscape="http://www.inkscape.org/namespaces/inkscape"
   version="1.1"
   x="0px"
   y="0px"
   viewBox="0 0 66.000221 128"
   enable-background="new 0 0 128 128"
   xml:space="preserve"
   id="svg10"
   sodipodi:docname="noun_Lightning_1057044.svg"
   inkscape:version="0.92.3 (2405546, 2018-03-11)"
   width="66.000221"
   height="128"><metadata
     id="metadata16"><rdf:RDF><cc:Work
         rdf:about=""><dc:format>image/svg+xml</dc:format><dc:type
           rdf:resource="http://purl.org/dc/dcmitype/StillImage" /></cc:Work></rdf:RDF></metadata><defs
     id="defs14" /><sodipodi:namedview
     pagecolor="#ffffff"
     bordercolor="#666666"
     borderopacity="1"
     objecttolerance="10"
     gridtolerance="10"
     guidetolerance="10"
     inkscape:pageopacity="0"
     inkscape:pageshadow="2"
     inkscape:window-width="640"
     inkscape:window-height="480"
     id="namedview12"
     showgrid="false"
     inkscape:zoom="1.475"
     inkscape:cx="-38.186223"
     inkscape:cy="48"
     inkscape:window-x="0"
     inkscape:window-y="0"
     inkscape:window-maximized="0"
     inkscape:current-layer="svg10" /><g
     id="g4"
     transform="translate(-30.999783)"><path
       d="m 34.939,128 c -0.312,0 -0.628,-0.073 -0.921,-0.225 -0.878,-0.456 -1.291,-1.485 -0.971,-2.422 L 53.718,64.789 H 33 c -0.643,0 -1.247,-0.309 -1.623,-0.831 -0.376,-0.521 -0.478,-1.192 -0.274,-1.802 L 51.388,1.367 C 51.66,0.551 52.424,0 53.285,0 h 37.959 c 0.696,0 1.343,0.362 1.706,0.956 0.363,0.594 0.392,1.334 0.075,1.954 l -19.7,38.537 21.677,0.023 c 0.752,10e-4 1.44,0.423 1.781,1.094 0.341,0.671 0.276,1.475 -0.166,2.083 l -60.06,82.53 C 36.17,127.71 35.562,128 34.939,128 Z m 0.837,-67.211 h 20.739 c 0.646,0 1.251,0.312 1.626,0.836 0.375,0.524 0.475,1.199 0.266,1.81 L 41.105,114.13 91.074,45.466 70.056,45.444 C 69.36,45.443 68.714,45.081 68.352,44.487 67.989,43.893 67.96,43.154 68.277,42.534 L 87.976,4 h -33.25 z"
       id="path2"
       inkscape:connector-curvature="0" /></g></svg>