<?xml version="1.0" encoding="UTF-8" standalone="no"?>
<svg
   xmlns:dc="http://purl.org/dc/elements/1.1/"
   xmlns:cc="http://creativecommons.org/ns#"
   xmlns:rdf="http://www.w3.org/1999/02/22-rdf-syntax-ns#"
   xmlns:svg="http://www.w3.org/2000/svg"
   xmlns="http://www.w3.org/2000/svg"
   xmlns:sodipodi="http://sodipodi.sourceforge.net/DTD/sodipodi-0.dtd"
   xmlns:inkscape="http://www.inkscape.org/namespaces/inkscape"
   version="1.1"
   x="0px"
   y="0px"
   viewBox="0 0 107 123.996"
   enable-background="new 0 0 128 128"
   xml:space="preserve"
   id="svg60"
   sodipodi:docname="noun_Tornado_1057069.svg"
   inkscape:version="0.92.3 (2405546, 2018-03-11)"
   width="107"
   height="123.996"><metadata
     id="metadata66"><rdf:RDF><cc:Work
         rdf:about=""><dc:format>image/svg+xml</dc:format><dc:type
           rdf:resource="http://purl.org/dc/dcmitype/StillImage" /></cc:Work></rdf:RDF></metadata><defs
     id="defs64" /><sodipodi:namedview
     pagecolor="#ffffff"
     bordercolor="#666666"
     borderopacity="1"
     objecttolerance="10"
     gridtolerance="10"
     guidetolerance="10"
     inkscape:pageopacity="0"
     inkscape:pageshadow="2"
     inkscape:window-width="640"
     inkscape:window-height="480"
     id="namedview62"
     showgrid="false"
     inkscape:zoom="1.475"
     inkscape:cx="-17.686441"
     inkscape:cy="45.998"
     inkscape:window-x="0"
     inkscape:window-y="0"
     inkscape:window-maximized="0"
     inkscape:current-layer="svg60" /><g
     id="g54"
     transform="translate(-10.5,-2.002)"><g
       id="g4"><path
         d="m 115.5,6.002 h -103 c -1.104,0 -2,-0.896 -2,-2 0,-1.104 0.896,-2 2,-2 h 103 c 1.104,0 2,0.896 2,2 0,1.104 -0.896,2 -2,2 z"
         id="path2"
         inkscape:connector-curvature="0" /></g><g
       id="g8"><path
         d="m 113.5,16.002 h -89 c -1.104,0 -2,-0.896 -2,-2 0,-1.104 0.896,-2 2,-2 h 89 c 1.104,0 2,0.896 2,2 0,1.104 -0.896,2 -2,2 z"
         id="path6"
         inkscape:connector-curvature="0" /></g><g
       id="g12"><path
         d="m 110.5,26.001 h -77 c -1.104,0 -2,-0.896 -2,-2 0,-1.104 0.896,-2 2,-2 h 77 c 1.104,0 2,0.896 2,2 0,1.104 -0.896,2 -2,2 z"
         id="path10"
         inkscape:connector-curvature="0" /></g><g
       id="g16"><path
         d="m 105.5,36.001 h -66 c -1.104,0 -2,-0.896 -2,-2 0,-1.104 0.896,-2 2,-2 h 66 c 1.104,0 2,0.896 2,2 0,1.104 -0.896,2 -2,2 z"
         id="path14"
         inkscape:connector-curvature="0" /></g><g
       id="g20"><path
         d="m 95.5,46.001 h -60 c -1.104,0 -2,-0.896 -2,-2 0,-1.104 0.896,-2 2,-2 h 60 c 1.104,0 2,0.896 2,2 0,1.104 -0.896,2 -2,2 z"
         id="path18"
         inkscape:connector-curvature="0" /></g><g
       id="g24"><path
         d="m 86.5,56 h -55 c -1.104,0 -2,-0.896 -2,-2 0,-1.104 0.896,-2 2,-2 h 55 c 1.104,0 2,0.896 2,2 0,1.104 -0.896,2 -2,2 z"
         id="path22"
         inkscape:connector-curvature="0" /></g><g
       id="g28"><path
         d="m 75.5,66 h -47 c -1.104,0 -2,-0.896 -2,-2 0,-1.104 0.896,-2 2,-2 h 47 c 1.104,0 2,0.896 2,2 0,1.104 -0.896,2 -2,2 z"
         id="path26"
         inkscape:connector-curvature="0" /></g><g
       id="g32"><path
         d="m 69.5,76 h -42 c -1.104,0 -2,-0.896 -2,-2 0,-1.104 0.896,-2 2,-2 h 42 c 1.104,0 2,0.896 2,2 0,1.104 -0.896,2 -2,2 z"
         id="path30"
         inkscape:connector-curvature="0" /></g><g
       id="g36"><path
         d="m 65.5,86 h -36 c -1.104,0 -2,-0.896 -2,-2 0,-1.104 0.896,-2 2,-2 h 36 c 1.104,0 2,0.896 2,2 0,1.104 -0.896,2 -2,2 z"
         id="path34"
         inkscape:connector-curvature="0" /></g><g
       id="g40"><path
         d="m 65.5,95.998 h -30 c -1.104,0 -2,-0.896 -2,-2 0,-1.104 0.896,-2 2,-2 h 30 c 1.104,0 2,0.896 2,2 0,1.104 -0.896,2 -2,2 z"
         id="path38"
         inkscape:connector-curvature="0" /></g><g
       id="g44"><path
         d="m 66.5,105.998 h -22 c -1.104,0 -2,-0.896 -2,-2 0,-1.104 0.896,-2 2,-2 h 22 c 1.104,0 2,0.896 2,2 0,1.104 -0.896,2 -2,2 z"
         id="path42"
         inkscape:connector-curvature="0" /></g><g
       id="g48"><path
         d="m 69.454,115.998 h -13 c -1.104,0 -2,-0.896 -2,-2 0,-1.104 0.896,-2 2,-2 h 13 c 1.104,0 2,0.896 2,2 0,1.104 -0.895,2 -2,2 z"
         id="path46"
         inkscape:connector-curvature="0" /></g><g
       id="g52"><path
         d="m 73.546,125.998 h -6 c -1.104,0 -2,-0.896 -2,-2 0,-1.104 0.896,-2 2,-2 h 6 c 1.104,0 2,0.896 2,2 0,1.104 -0.896,2 -2,2 z"
         id="path50"
         inkscape:connector-curvature="0" /></g></g></svg>