<?xml version="1.0" encoding="UTF-8" standalone="no"?>
<svg
   xmlns:dc="http://purl.org/dc/elements/1.1/"
   xmlns:cc="http://creativecommons.org/ns#"
   xmlns:rdf="http://www.w3.org/1999/02/22-rdf-syntax-ns#"
   xmlns:svg="http://www.w3.org/2000/svg"
   xmlns="http://www.w3.org/2000/svg"
   xmlns:sodipodi="http://sodipodi.sourceforge.net/DTD/sodipodi-0.dtd"
   xmlns:inkscape="http://www.inkscape.org/namespaces/inkscape"
   version="1.1"
   x="0px"
   y="0px"
   viewBox="0 0 128 87.660004"
   enable-background="new 0 0 128 128"
   xml:space="preserve"
   id="svg20"
   sodipodi:docname="noun_windy weather_1057070.svg"
   inkscape:version="0.92.3 (2405546, 2018-03-11)"
   width="128"
   height="87.660004"><metadata
     id="metadata26"><rdf:RDF><cc:Work
         rdf:about=""><dc:format>image/svg+xml</dc:format><dc:type
           rdf:resource="http://purl.org/dc/dcmitype/StillImage" /></cc:Work></rdf:RDF></metadata><defs
     id="defs24" /><sodipodi:namedview
     pagecolor="#ffffff"
     bordercolor="#666666"
     borderopacity="1"
     objecttolerance="10"
     gridtolerance="10"
     guidetolerance="10"
     inkscape:pageopacity="0"
     inkscape:pageshadow="2"
     inkscape:window-width="1324"
     inkscape:window-height="708"
     id="namedview22"
     showgrid="false"
     inkscape:zoom="1.475"
     inkscape:cx="-7.1864407"
     inkscape:cy="27.83"
     inkscape:window-x="0"
     inkscape:window-y="0"
     inkscape:window-maximized="0"
     inkscape:current-layer="svg20" /><g
     id="g14"
     transform="translate(0,-20.17)"><g
       id="g4"><path
         d="M 71.494,52 H 2 C 0.896,52 0,51.104 0,50 0,48.896 0.896,48 2,48 h 69.494 c 6.57,0 11.916,-5.345 11.916,-11.915 0,-6.57 -5.346,-11.915 -11.916,-11.915 -6.569,0 -11.914,5.345 -11.914,11.915 0,1.104 -0.896,2 -2,2 -1.104,0 -2,-0.896 -2,-2 0,-8.775 7.139,-15.915 15.914,-15.915 8.775,0 15.916,7.14 15.916,15.915 C 87.41,44.86 80.271,52 71.494,52 Z"
         id="path2"
         inkscape:connector-curvature="0" /></g><g
       id="g8"><path
         d="m 84.827,107.83 c -8.775,0 -15.914,-7.139 -15.914,-15.913 0,-1.104 0.896,-2 2,-2 1.104,0 2,0.896 2,2 0,6.569 5.345,11.913 11.914,11.913 6.571,0 11.917,-5.344 11.917,-11.913 C 96.744,85.346 91.398,80 84.827,80 H 11.233 c -1.104,0 -2,-0.896 -2,-2 0,-1.104 0.896,-2 2,-2 h 73.594 c 8.776,0 15.917,7.141 15.917,15.917 0,8.774 -7.14,15.913 -15.917,15.913 z"
         id="path6"
         inkscape:connector-curvature="0" /></g><g
       id="g12"><path
         d="M 112.084,66 H 18.467 c -1.104,0 -2,-0.896 -2,-2 0,-1.104 0.896,-2 2,-2 h 93.617 C 118.654,62 124,56.655 124,50.085 c 0,-6.57 -5.346,-11.915 -11.916,-11.915 -6.568,0 -11.914,5.345 -11.914,11.915 0,1.104 -0.896,2 -2,2 -1.104,0 -2,-0.896 -2,-2 0,-8.775 7.139,-15.915 15.914,-15.915 8.775,0 15.916,7.14 15.916,15.915 C 128,58.86 120.859,66 112.084,66 Z"
         id="path10"
         inkscape:connector-curvature="0" /></g></g></svg>